<?xml version="1.0" encoding="UTF-8" standalone="no"?>
<svg width="295.275mm" height="295.981mm"
 viewBox="0 0 837 839"
 xmlns="http://www.w3.org/2000/svg" xmlns:xlink="http://www.w3.org/1999/xlink" version="1.2" baseProfile="tiny">
<title>Qt SVG Document</title>
<desc>Generated with Qt</desc>
<defs>
</defs>
<g fill="none" stroke="black" stroke-width="1" fill-rule="evenodd" stroke-linecap="square" stroke-linejoin="bevel" >

<g fill="none" stroke="#000000" stroke-opacity="1" stroke-width="1" stroke-linecap="square" stroke-linejoin="bevel" transform="matrix(0.558,0,0,0.559333,0,0)"
font-family="Segoe UI" font-size="9" font-weight="400" font-style="normal" 
>
</g>

<g fill="#ffffff" fill-opacity="1" stroke="none" transform="matrix(0.558,0,0,0.559333,0,0)"
font-family="Segoe UI" font-size="9" font-weight="400" font-style="normal" 
>
<path vector-effect="none" fill-rule="evenodd" d="M0,0 L1500,0 L1500,1500 L0,1500 L0,0"/>
</g>

<g fill="none" stroke="#000000" stroke-opacity="1" stroke-width="1" stroke-linecap="square" stroke-linejoin="bevel" transform="matrix(0.558,0,0,0.559333,0,0)"
font-family="Segoe UI" font-size="9" font-weight="400" font-style="normal" 
>
</g>

<g fill="none" stroke="#000000" stroke-opacity="1" stroke-width="1" stroke-linecap="square" stroke-linejoin="bevel" transform="matrix(1,0,0,1,0,0)"
font-family="Segoe UI" font-size="9" font-weight="400" font-style="normal" 
>
</g>

<g fill="none" stroke="#000000" stroke-opacity="1" stroke-width="1" stroke-linecap="square" stroke-linejoin="bevel" transform="matrix(1,0,0,1,0,0)"
font-family="Segoe UI" font-size="9" font-weight="400" font-style="normal" 
>
</g>

<g fill="none" stroke="#000000" stroke-opacity="1" stroke-width="1" stroke-linecap="square" stroke-linejoin="bevel" transform="matrix(0.558,0,0,0.559333,418.5,419.5)"
font-family="Segoe UI" font-size="9" font-weight="400" font-style="normal" 
>
</g>

<g fill="none" stroke="#000000" stroke-opacity="1" stroke-width="1" stroke-linecap="square" stroke-linejoin="bevel" transform="matrix(0.558,0,0,0.559333,418.5,419.5)"
font-family="Segoe UI" font-size="9" font-weight="400" font-style="normal" 
>
</g>

<g fill="none" stroke="#000000" stroke-opacity="1" stroke-width="1" stroke-linecap="square" stroke-linejoin="bevel" transform="matrix(0.558,0,0,0.559333,418.5,419.5)"
font-family="Segoe UI" font-size="9" font-weight="400" font-style="normal" 
>
</g>

<g fill="none" stroke="#000000" stroke-opacity="1" stroke-width="1" stroke-linecap="square" stroke-linejoin="bevel" transform="matrix(0.558,0,0,0.559333,418.5,419.5)"
font-family="Segoe UI" font-size="9" font-weight="400" font-style="normal" 
>
</g>

<g fill="#ffffff" fill-opacity="1" stroke="none" transform="matrix(0.558,0,0,0.559333,418.5,419.5)"
font-family="Segoe UI" font-size="9" font-weight="400" font-style="normal" 
>
<path vector-effect="none" fill-rule="evenodd" d="M-750,-750 L750,-750 L750,750 L-750,750 L-750,-750"/>
</g>

<g fill="none" stroke="#000000" stroke-opacity="1" stroke-width="1" stroke-linecap="square" stroke-linejoin="bevel" transform="matrix(0.558,0,0,0.559333,418.5,419.5)"
font-family="Segoe UI" font-size="9" font-weight="400" font-style="normal" 
>
</g>

<g fill="none" stroke="#000000" stroke-opacity="1" stroke-width="1" stroke-linecap="square" stroke-linejoin="bevel" transform="matrix(0.558,0,0,0.559333,418.5,419.5)"
font-family="Segoe UI" font-size="9" font-weight="400" font-style="normal" 
>
</g>

<g fill="none" stroke="#000000" stroke-opacity="1" stroke-width="1" stroke-linecap="square" stroke-linejoin="bevel" transform="matrix(0.558,0,0,0.559333,418.5,25.2232)"
font-family="Segoe UI" font-size="9" font-weight="400" font-style="normal" 
>
</g>

<g fill="none" stroke="#000000" stroke-opacity="1" stroke-width="1" stroke-linecap="square" stroke-linejoin="bevel" transform="matrix(0.558,0,0,0.559333,418.5,25.2232)"
font-family="Segoe UI" font-size="9" font-weight="400" font-style="normal" 
>
</g>

<g fill="#000000" fill-opacity="0" stroke="none" transform="matrix(0.558,0,0,0.559333,418.5,25.2232)"
font-family="Segoe UI" font-size="9" font-weight="400" font-style="normal" 
>
<path vector-effect="none" fill-rule="evenodd" d="M-262.819,-28.2222 L262.819,-28.2222 L262.819,28.2222 L-262.819,28.2222 L-262.819,-28.2222"/>
</g>

<g fill="none" stroke="#000000" stroke-opacity="1" stroke-width="1" stroke-linecap="square" stroke-linejoin="bevel" transform="matrix(0.558,0,0,0.559333,418.5,25.2232)"
font-family="Segoe UI" font-size="9" font-weight="400" font-style="normal" 
>
</g>

<g fill="none" stroke="#000000" stroke-opacity="1" stroke-width="1" stroke-linecap="square" stroke-linejoin="bevel" transform="matrix(1.9685,0,0,1.9732,271.847,9.43757)"
font-family="Segoe UI" font-size="9" font-weight="400" font-style="normal" 
>
</g>

<g fill="none" stroke="#000000" stroke-opacity="1" stroke-width="1" stroke-linecap="square" stroke-linejoin="bevel" transform="matrix(1.9685,0,0,1.9732,271.847,9.43757)"
font-family="Segoe UI" font-size="9" font-weight="400" font-style="normal" 
>
</g>

<g fill="none" stroke="#000000" stroke-opacity="1" stroke-width="1" stroke-linecap="square" stroke-linejoin="bevel" transform="matrix(1.9685,0,0,1.9732,271.847,9.43757)"
font-family="Segoe UI" font-size="9" font-weight="400" font-style="normal" 
>
</g>

<g fill="#000000" fill-opacity="0" stroke="none" transform="matrix(1.9685,0,0,1.9732,271.847,9.43757)"
font-family="Segoe UI" font-size="9" font-weight="400" font-style="normal" 
>
<rect x="0" y="0" width="149" height="16"/>
</g>

<g fill="none" stroke="#000000" stroke-opacity="1" stroke-width="1" stroke-linecap="square" stroke-linejoin="bevel" transform="matrix(1.9685,0,0,1.9732,271.847,9.43757)"
font-family="Segoe UI" font-size="9" font-weight="400" font-style="normal" 
>
<text fill="#000000" fill-opacity="1" stroke="none" xml:space="preserve" x="0" y="13" font-family="Times New Roman" font-size="11" font-weight="400" font-style="normal" 
 >ADC to Angle calibration</text>
</g>

<g fill="none" stroke="#000000" stroke-opacity="1" stroke-width="1" stroke-linecap="square" stroke-linejoin="bevel" transform="matrix(1.9685,0,0,1.9732,271.847,9.43757)"
font-family="Segoe UI" font-size="9" font-weight="400" font-style="normal" 
>
</g>

<g fill="none" stroke="#000000" stroke-opacity="1" stroke-width="1" stroke-linecap="square" stroke-linejoin="bevel" transform="matrix(1,0,0,1,0,0)"
font-family="Segoe UI" font-size="9" font-weight="400" font-style="normal" 
>
</g>

<g fill="none" stroke="#000000" stroke-opacity="1" stroke-width="1" stroke-linecap="square" stroke-linejoin="bevel" transform="matrix(0.558,0,0,0.559333,418.5,419.5)"
font-family="Segoe UI" font-size="9" font-weight="400" font-style="normal" 
>
</g>

<g fill="none" stroke="#000000" stroke-opacity="1" stroke-width="1" stroke-linecap="square" stroke-linejoin="bevel" transform="matrix(0.558,0,0,0.559333,418.5,419.5)"
font-family="Segoe UI" font-size="9" font-weight="400" font-style="normal" 
>
</g>

<g fill="none" stroke="#000000" stroke-opacity="1" stroke-width="1" stroke-linecap="square" stroke-linejoin="bevel" transform="matrix(1.9685,0,0,1.9732,271.847,9.43757)"
font-family="Segoe UI" font-size="9" font-weight="400" font-style="normal" 
>
</g>

<g fill="none" stroke="#000000" stroke-opacity="1" stroke-width="1" stroke-linecap="square" stroke-linejoin="bevel" transform="matrix(1.9685,0,0,1.9732,271.847,9.43757)"
font-family="Segoe UI" font-size="9" font-weight="400" font-style="normal" 
>
</g>

<g fill="none" stroke="#000000" stroke-opacity="1" stroke-width="1" stroke-linecap="square" stroke-linejoin="bevel" transform="matrix(1.9685,0,0,1.9732,271.847,9.43757)"
font-family="Segoe UI" font-size="9" font-weight="400" font-style="normal" 
>
</g>

<g fill="none" stroke="#000000" stroke-opacity="1" stroke-width="1" stroke-linecap="square" stroke-linejoin="bevel" transform="matrix(1.9685,0,0,1.9732,271.847,9.43757)"
font-family="Segoe UI" font-size="9" font-weight="400" font-style="normal" 
>
</g>

<g fill="none" stroke="#000000" stroke-opacity="1" stroke-width="1" stroke-linecap="square" stroke-linejoin="bevel" transform="matrix(1,0,0,1,0,0)"
font-family="Segoe UI" font-size="9" font-weight="400" font-style="normal" 
>
</g>

<g fill="none" stroke="#000000" stroke-opacity="1" stroke-width="1" stroke-linecap="square" stroke-linejoin="bevel" transform="matrix(0.558,0,0,0.559333,418.5,419.5)"
font-family="Segoe UI" font-size="9" font-weight="400" font-style="normal" 
>
</g>

<g fill="none" stroke="#000000" stroke-opacity="1" stroke-width="1" stroke-linecap="square" stroke-linejoin="bevel" transform="matrix(0.558,0,0,0.559333,418.5,419.5)"
font-family="Segoe UI" font-size="9" font-weight="400" font-style="normal" 
>
</g>

<g fill="none" stroke="#000000" stroke-opacity="1" stroke-width="1" stroke-linecap="square" stroke-linejoin="bevel" transform="matrix(0.558,0,0,0.559333,418.5,419.5)"
font-family="Segoe UI" font-size="9" font-weight="400" font-style="normal" 
>
</g>

<g fill="none" stroke="#a0a0a4" stroke-opacity="1" stroke-width="1" stroke-linecap="butt" stroke-linejoin="miter" stroke-miterlimit="2" transform="matrix(0.558,0,0,0.559333,418.5,419.5)"
font-family="Segoe UI" font-size="9" font-weight="400" font-style="normal" 
>
<path vector-effect="non-scaling-stroke" fill-rule="evenodd" d="M-150,550 L-150,-650 M250,550 L250,-650"/>
</g>

<g fill="none" stroke="#000000" stroke-opacity="1" stroke-width="1" stroke-linecap="square" stroke-linejoin="bevel" transform="matrix(0.558,0,0,0.559333,418.5,419.5)"
font-family="Segoe UI" font-size="9" font-weight="400" font-style="normal" 
>
</g>

<g fill="none" stroke="#000000" stroke-opacity="1" stroke-width="1" stroke-linecap="square" stroke-linejoin="bevel" transform="matrix(0.558,0,0,0.559333,418.5,419.5)"
font-family="Segoe UI" font-size="9" font-weight="400" font-style="normal" 
>
</g>

<g fill="none" stroke="#000000" stroke-opacity="1" stroke-width="1" stroke-linecap="square" stroke-linejoin="bevel" transform="matrix(0.558,0,0,0.559333,418.5,419.5)"
font-family="Segoe UI" font-size="9" font-weight="400" font-style="normal" 
>
</g>

<g fill="none" stroke="#000000" stroke-opacity="1" stroke-width="1" stroke-linecap="square" stroke-linejoin="bevel" transform="matrix(0.558,0,0,0.559333,418.5,419.5)"
font-family="Segoe UI" font-size="9" font-weight="400" font-style="normal" 
>
</g>

<g fill="none" stroke="#a0a0a4" stroke-opacity="1" stroke-width="1" stroke-linecap="butt" stroke-linejoin="miter" stroke-miterlimit="2" transform="matrix(0.558,0,0,0.559333,418.5,419.5)"
font-family="Segoe UI" font-size="9" font-weight="400" font-style="normal" 
>
<path vector-effect="non-scaling-stroke" fill-rule="evenodd" d="M-550,222.727 L650,222.727 M-550,-213.636 L650,-213.636"/>
</g>

<g fill="none" stroke="#000000" stroke-opacity="1" stroke-width="1" stroke-linecap="square" stroke-linejoin="bevel" transform="matrix(0.558,0,0,0.559333,418.5,419.5)"
font-family="Segoe UI" font-size="9" font-weight="400" font-style="normal" 
>
</g>

<g fill="none" stroke="#000000" stroke-opacity="1" stroke-width="1" stroke-linecap="square" stroke-linejoin="bevel" transform="matrix(0.558,0,0,0.559333,418.5,419.5)"
font-family="Segoe UI" font-size="9" font-weight="400" font-style="normal" 
>
</g>

<g fill="none" stroke="#000000" stroke-opacity="1" stroke-width="1" stroke-linecap="square" stroke-linejoin="bevel" transform="matrix(0.558,0,0,0.559333,418.5,419.5)"
font-family="Segoe UI" font-size="9" font-weight="400" font-style="normal" 
>
</g>

<g fill="none" stroke="#000000" stroke-opacity="1" stroke-width="1" stroke-linecap="square" stroke-linejoin="bevel" transform="matrix(0.558,0,0,0.559333,418.5,419.5)"
font-family="Segoe UI" font-size="9" font-weight="400" font-style="normal" 
>
</g>

<g fill="none" stroke="#1c71d8" stroke-opacity="1" stroke-width="3.52778" stroke-linecap="butt" stroke-linejoin="miter" stroke-miterlimit="2" transform="matrix(0.558,0,0,0.559333,418.5,419.5)"
font-family="Segoe UI" font-size="9" font-weight="400" font-style="normal" 
>
<path vector-effect="none" fill-rule="evenodd" d="M-550,-550.727 L-250,-282.364 L50,13.2727 L350,247.818 L650,466"/>
<path vector-effect="none" fill-rule="evenodd" d=""/>
</g>

<g fill="none" stroke="#1c71d8" stroke-opacity="1" stroke-width="3.52778" stroke-linecap="square" stroke-linejoin="bevel" transform="matrix(0.558,0,0,0.559333,418.5,419.5)"
font-family="Segoe UI" font-size="9" font-weight="400" font-style="normal" 
>
<path vector-effect="none" fill-rule="evenodd" d="M-537.653,-550.727 C-537.653,-543.908 -543.181,-538.38 -550,-538.38 C-556.819,-538.38 -562.347,-543.908 -562.347,-550.727 C-562.347,-557.546 -556.819,-563.074 -550,-563.074 C-543.181,-563.074 -537.653,-557.546 -537.653,-550.727 "/>
<path vector-effect="none" fill-rule="evenodd" d="M-237.653,-282.364 C-237.653,-275.544 -243.181,-270.016 -250,-270.016 C-256.819,-270.016 -262.347,-275.544 -262.347,-282.364 C-262.347,-289.183 -256.819,-294.711 -250,-294.711 C-243.181,-294.711 -237.653,-289.183 -237.653,-282.364 "/>
<path vector-effect="none" fill-rule="evenodd" d="M62.3472,13.2727 C62.3472,20.0919 56.8192,25.6199 50,25.6199 C43.1808,25.6199 37.6528,20.0919 37.6528,13.2727 C37.6528,6.45354 43.1808,0.925505 50,0.925505 C56.8192,0.925505 62.3472,6.45354 62.3472,13.2727 "/>
<path vector-effect="none" fill-rule="evenodd" d="M362.347,247.818 C362.347,254.637 356.819,260.165 350,260.165 C343.181,260.165 337.653,254.637 337.653,247.818 C337.653,240.999 343.181,235.471 350,235.471 C356.819,235.471 362.347,240.999 362.347,247.818 "/>
<path vector-effect="none" fill-rule="evenodd" d="M662.347,466 C662.347,472.819 656.819,478.347 650,478.347 C643.181,478.347 637.653,472.819 637.653,466 C637.653,459.181 643.181,453.653 650,453.653 C656.819,453.653 662.347,459.181 662.347,466 "/>
</g>

<g fill="none" stroke="#000000" stroke-opacity="1" stroke-width="1" stroke-linecap="square" stroke-linejoin="bevel" transform="matrix(0.558,0,0,0.559333,418.5,419.5)"
font-family="Segoe UI" font-size="9" font-weight="400" font-style="normal" 
>
</g>

<g fill="none" stroke="#000000" stroke-opacity="1" stroke-width="1" stroke-linecap="square" stroke-linejoin="bevel" transform="matrix(0.558,0,0,0.559333,418.5,419.5)"
font-family="Segoe UI" font-size="9" font-weight="400" font-style="normal" 
>
</g>

<g fill="none" stroke="#0cff45" stroke-opacity="1" stroke-dasharray="14.1111,7.05556" stroke-dashoffset="0" stroke-width="3.52778" stroke-linecap="butt" stroke-linejoin="miter" stroke-miterlimit="2" transform="matrix(0.558,0,0,0.559333,418.5,419.5)"
font-family="Segoe UI" font-size="9" font-weight="400" font-style="normal" 
>
<path vector-effect="none" fill-rule="evenodd" d="M-550,-533.927 L-548.799,-532.901 L-547.598,-531.874 L-546.396,-530.848 L-545.195,-529.821 L-543.994,-528.795 L-542.793,-527.768 L-541.592,-526.742 L-540.39,-525.715 L-539.189,-524.689 L-537.988,-523.662 L-536.787,-522.636 L-535.586,-521.61 L-534.384,-520.583 L-533.183,-519.557 L-531.982,-518.53 L-530.781,-517.504 L-529.58,-516.477 L-528.378,-515.451 L-527.177,-514.424 L-525.976,-513.398 L-524.775,-512.371 L-523.574,-511.345 L-522.372,-510.318 L-521.171,-509.292 L-519.97,-508.265 L-518.769,-507.239 L-517.568,-506.212 L-516.366,-505.186 L-515.165,-504.159 L-513.964,-503.133 L-512.763,-502.106 L-511.562,-501.08 L-510.36,-500.053 L-509.159,-499.027 L-507.958,-498 L-506.757,-496.974 L-505.556,-495.947 L-504.354,-494.921 L-503.153,-493.895 L-501.952,-492.868 L-500.751,-491.842 L-499.55,-490.815 L-498.348,-489.789 L-497.147,-488.762 L-495.946,-487.736 L-494.745,-486.709 L-493.544,-485.683 L-492.342,-484.656 L-491.141,-483.63 L-489.94,-482.603 L-488.739,-481.577 L-487.538,-480.55 L-486.336,-479.524 L-485.135,-478.497 L-483.934,-477.471 L-482.733,-476.444 L-481.532,-475.418 L-480.33,-474.391 L-479.129,-473.365 L-477.928,-472.338 L-476.727,-471.312 L-475.526,-470.285 L-474.324,-469.259 L-473.123,-468.232 L-471.922,-467.206 L-470.721,-466.18 L-469.52,-465.153 L-468.318,-464.127 L-467.117,-463.1 L-465.916,-462.074 L-464.715,-461.047 L-463.514,-460.021 L-462.312,-458.994 L-461.111,-457.968 L-459.91,-456.941 L-458.709,-455.915 L-457.508,-454.888 L-456.306,-453.862 L-455.105,-452.835 L-453.904,-451.809 L-452.703,-450.782 L-451.502,-449.756 L-450.3,-448.729 L-449.099,-447.703 L-447.898,-446.676 L-446.697,-445.65 L-445.495,-444.623 L-444.294,-443.597 L-443.093,-442.57 L-441.892,-441.544 L-440.691,-440.517 L-439.489,-439.491 L-438.288,-438.465 L-437.087,-437.438 L-435.886,-436.412 L-434.685,-435.385 L-433.483,-434.359 L-432.282,-433.332 L-431.081,-432.306 L-429.88,-431.279 L-428.679,-430.253 L-427.477,-429.226 L-426.276,-428.2 L-425.075,-427.173 L-423.874,-426.147 L-422.673,-425.12 L-421.471,-424.094 L-420.27,-423.067 L-419.069,-422.041 L-417.868,-421.014 L-416.667,-419.988 L-415.465,-418.961 L-414.264,-417.935 L-413.063,-416.908 L-411.862,-415.882 L-410.661,-414.855 L-409.459,-413.829 L-408.258,-412.803 L-407.057,-411.776 L-405.856,-410.75 L-404.655,-409.723 L-403.453,-408.697 L-402.252,-407.67 L-401.051,-406.644 L-399.85,-405.617 L-398.649,-404.591 L-397.447,-403.564 L-396.246,-402.538 L-395.045,-401.511 L-393.844,-400.485 L-392.643,-399.458 L-391.441,-398.432 L-390.24,-397.405 L-389.039,-396.379 L-387.838,-395.352 L-386.637,-394.326 L-385.435,-393.299 L-384.234,-392.273 L-383.033,-391.246 L-381.832,-390.22 L-380.631,-389.193 L-379.429,-388.167 L-378.228,-387.14 L-377.027,-386.114 L-375.826,-385.088 L-374.625,-384.061 L-373.423,-383.035 L-372.222,-382.008 L-371.021,-380.982 L-369.82,-379.955 L-368.619,-378.929 L-367.417,-377.902 L-366.216,-376.876 L-365.015,-375.849 L-363.814,-374.823 L-362.613,-373.796 L-361.411,-372.77 L-360.21,-371.743 L-359.009,-370.717 L-357.808,-369.69 L-356.607,-368.664 L-355.405,-367.637 L-354.204,-366.611 L-353.003,-365.584 L-351.802,-364.558 L-350.601,-363.531 L-349.399,-362.505 L-348.198,-361.478 L-346.997,-360.452 L-345.796,-359.425 L-344.595,-358.399 L-343.393,-357.373 L-342.192,-356.346 L-340.991,-355.32 L-339.79,-354.293 L-338.589,-353.267 L-337.387,-352.24 L-336.186,-351.214 L-334.985,-350.187 L-333.784,-349.161 L-332.583,-348.134 L-331.381,-347.108 L-330.18,-346.081 L-328.979,-345.055 L-327.778,-344.028 L-326.577,-343.002 L-325.375,-341.975 L-324.174,-340.949 L-322.973,-339.922 L-321.772,-338.896 L-320.571,-337.869 L-319.369,-336.843 L-318.168,-335.816 L-316.967,-334.79 L-315.766,-333.763 L-314.565,-332.737 L-313.363,-331.711 L-312.162,-330.684 L-310.961,-329.658 L-309.76,-328.631 L-308.559,-327.605 L-307.357,-326.578 L-306.156,-325.552 L-304.955,-324.525 L-303.754,-323.499 L-302.553,-322.472 L-301.351,-321.446 L-300.15,-320.419 L-298.949,-319.393 L-297.748,-318.366 L-296.547,-317.34 L-295.345,-316.313 L-294.144,-315.287 L-292.943,-314.26 L-291.742,-313.234 L-290.541,-312.207 L-289.339,-311.181 L-288.138,-310.154 L-286.937,-309.128 L-285.736,-308.101 L-284.535,-307.075 L-283.333,-306.048 L-282.132,-305.022 L-280.931,-303.996 L-279.73,-302.969 L-278.529,-301.943 L-277.327,-300.916 L-276.126,-299.89 L-274.925,-298.863 L-273.724,-297.837 L-272.523,-296.81 L-271.321,-295.784 L-270.12,-294.757 L-268.919,-293.731 L-267.718,-292.704 L-266.517,-291.678 L-265.315,-290.651 L-264.114,-289.625 L-262.913,-288.598 L-261.712,-287.572 L-260.511,-286.545 L-259.309,-285.519 L-258.108,-284.492 L-256.907,-283.466 L-255.706,-282.439 L-254.505,-281.413 L-253.303,-280.386 L-252.102,-279.36 L-250.901,-278.333 L-249.7,-277.307 L-248.498,-276.281 L-247.297,-275.254 L-246.096,-274.228 L-244.895,-273.201 L-243.694,-272.175 L-242.492,-271.148 L-241.291,-270.122 L-240.09,-269.095 L-238.889,-268.069 L-237.688,-267.042 L-236.486,-266.016 L-235.285,-264.989 L-234.084,-263.963 L-232.883,-262.936 L-231.682,-261.91 L-230.48,-260.883 L-229.279,-259.857 L-228.078,-258.83 L-226.877,-257.804 L-225.676,-256.777 L-224.474,-255.751 L-223.273,-254.724 L-222.072,-253.698 L-220.871,-252.671 L-219.67,-251.645 L-218.468,-250.619 L-217.267,-249.592 L-216.066,-248.566 L-214.865,-247.539 L-213.664,-246.513 L-212.462,-245.486 L-211.261,-244.46 L-210.06,-243.433 L-208.859,-242.407 L-207.658,-241.38 L-206.456,-240.354 L-205.255,-239.327 L-204.054,-238.301 L-202.853,-237.274 L-201.652,-236.248 L-200.45,-235.221 L-199.249,-234.195 L-198.048,-233.168 L-196.847,-232.142 L-195.646,-231.115 L-194.444,-230.089 L-193.243,-229.062 L-192.042,-228.036 L-190.841,-227.009 L-189.64,-225.983 L-188.438,-224.956 L-187.237,-223.93 L-186.036,-222.904 L-184.835,-221.877 L-183.634,-220.851 L-182.432,-219.824 L-181.231,-218.798 L-180.03,-217.771 L-178.829,-216.745 L-177.628,-215.718 L-176.426,-214.692 L-175.225,-213.665 L-174.024,-212.639 L-172.823,-211.612 L-171.622,-210.586 L-170.42,-209.559 L-169.219,-208.533 L-168.018,-207.506 L-166.817,-206.48 L-165.616,-205.453 L-164.414,-204.427 L-163.213,-203.4 L-162.012,-202.374 L-160.811,-201.347 L-159.61,-200.321 L-158.408,-199.294 L-157.207,-198.268 L-156.006,-197.241 L-154.805,-196.215 L-153.604,-195.189 L-152.402,-194.162 L-151.201,-193.136 L-150,-192.109 L-148.799,-191.083 L-147.598,-190.056 L-146.396,-189.03 L-145.195,-188.003 L-143.994,-186.977 L-142.793,-185.95 L-141.592,-184.924 L-140.39,-183.897 L-139.189,-182.871 L-137.988,-181.844 L-136.787,-180.818 L-135.586,-179.791 L-134.384,-178.765 L-133.183,-177.738 L-131.982,-176.712 L-130.781,-175.685 L-129.58,-174.659 L-128.378,-173.632 L-127.177,-172.606 L-125.976,-171.579 L-124.775,-170.553 L-123.574,-169.527 L-122.372,-168.5 L-121.171,-167.474 L-119.97,-166.447 L-118.769,-165.421 L-117.568,-164.394 L-116.366,-163.368 L-115.165,-162.341 L-113.964,-161.315 L-112.763,-160.288 L-111.562,-159.262 L-110.36,-158.235 L-109.159,-157.209 L-107.958,-156.182 L-106.757,-155.156 L-105.556,-154.129 L-104.354,-153.103 L-103.153,-152.076 L-101.952,-151.05 L-100.751,-150.023 L-99.5495,-148.997 L-98.3483,-147.97 L-97.1471,-146.944 L-95.9459,-145.917 L-94.7447,-144.891 L-93.5435,-143.864 L-92.3423,-142.838 L-91.1411,-141.812 L-89.9399,-140.785 L-88.7387,-139.759 L-87.5375,-138.732 L-86.3363,-137.706 L-85.1351,-136.679 L-83.9339,-135.653 L-82.7327,-134.626 L-81.5315,-133.6 L-80.3303,-132.573 L-79.1291,-131.547 L-77.9279,-130.52 L-76.7267,-129.494 L-75.5255,-128.467 L-74.3243,-127.441 L-73.1231,-126.414 L-71.9219,-125.388 L-70.7207,-124.361 L-69.5195,-123.335 L-68.3183,-122.308 L-67.1171,-121.282 L-65.9159,-120.255 L-64.7147,-119.229 L-63.5135,-118.202 L-62.3123,-117.176 L-61.1111,-116.149 L-59.9099,-115.123 L-58.7087,-114.097 L-57.5075,-113.07 L-56.3063,-112.044 L-55.1051,-111.017 L-53.9039,-109.991 L-52.7027,-108.964 L-51.5015,-107.938 L-50.3003,-106.911 L-49.0991,-105.885 L-47.8979,-104.858 L-46.6967,-103.832 L-45.4955,-102.805 L-44.2943,-101.779 L-43.0931,-100.752 L-41.8919,-99.7258 L-40.6907,-98.6993 L-39.4895,-97.6728 L-38.2883,-96.6464 L-37.0871,-95.6199 L-35.8859,-94.5934 L-34.6847,-93.5669 L-33.4835,-92.5404 L-32.2823,-91.514 L-31.0811,-90.4875 L-29.8799,-89.461 L-28.6787,-88.4345 L-27.4775,-87.408 L-26.2763,-86.3815 L-25.0751,-85.3551 L-23.8739,-84.3286 L-22.6727,-83.3021 L-21.4715,-82.2756 L-20.2703,-81.2491 L-19.0691,-80.2227 L-17.8679,-79.1962 L-16.6667,-78.1697 L-15.4655,-77.1432 L-14.2643,-76.1167 L-13.0631,-75.0903 L-11.8619,-74.0638 L-10.6607,-73.0373 L-9.45946,-72.0108 L-8.25826,-70.9843 L-7.05706,-69.9578 L-5.85586,-68.9314 L-4.65465,-67.9049 L-3.45345,-66.8784 L-2.25225,-65.8519 L-1.05105,-64.8254 L0.15015,-63.799 L1.35135,-62.7725 L2.55255,-61.746 L3.75375,-60.7195 L4.95495,-59.693 L6.15616,-58.6666 L7.35736,-57.6401 L8.55856,-56.6136 L9.75976,-55.5871 L10.961,-54.5606 L12.1622,-53.5342 L13.3634,-52.5077 L14.5646,-51.4812 L15.7658,-50.4547 L16.967,-49.4282 L18.1682,-48.4017 L19.3694,-47.3753 L20.5706,-46.3488 L21.7718,-45.3223 L22.973,-44.2958 L24.1742,-43.2693 L25.3754,-42.2429 L26.5766,-41.2164 L27.7778,-40.1899 L28.979,-39.1634 L30.1802,-38.1369 L31.3814,-37.1105 L32.5826,-36.084 L33.7838,-35.0575 L34.985,-34.031 L36.1862,-33.0045 L37.3874,-31.9781 L38.5886,-30.9516 L39.7898,-29.9251 L40.991,-28.8986 L42.1922,-27.8721 L43.3934,-26.8456 L44.5946,-25.8192 L45.7958,-24.7927 L46.997,-23.7662 L48.1982,-22.7397 L49.3994,-21.7132 L50.6006,-20.6868 L51.8018,-19.6603 L53.003,-18.6338 L54.2042,-17.6073 L55.4054,-16.5808 L56.6066,-15.5544 L57.8078,-14.5279 L59.009,-13.5014 L60.2102,-12.4749 L61.4114,-11.4484 L62.6126,-10.4219 L63.8138,-9.39547 L65.015,-8.36899 L66.2162,-7.34251 L67.4174,-6.31603 L68.6186,-5.28954 L69.8198,-4.26306 L71.021,-3.23658 L72.2222,-2.2101 L73.4234,-1.18362 L74.6246,-0.157139 L75.8258,0.869342 L77.027,1.89582 L78.2282,2.9223 L79.4294,3.94879 L80.6306,4.97527 L81.8318,6.00175 L83.033,7.02823 L84.2342,8.05471 L85.4354,9.08119 L86.6366,10.1077 L87.8378,11.1342 L89.039,12.1606 L90.2402,13.1871 L91.4414,14.2136 L92.6426,15.2401 L93.8438,16.2666 L95.045,17.293 L96.2462,18.3195 L97.4474,19.346 L98.6486,20.3725 L99.8498,21.399 L101.051,22.4254 L102.252,23.4519 L103.453,24.4784 L104.655,25.5049 L105.856,26.5314 L107.057,27.5578 L108.258,28.5843 L109.459,29.6108 L110.661,30.6373 L111.862,31.6638 L113.063,32.6903 L114.264,33.7167 L115.465,34.7432 L116.667,35.7697 L117.868,36.7962 L119.069,37.8227 L120.27,38.8491 L121.471,39.8756 L122.673,40.9021 L123.874,41.9286 L125.075,42.9551 L126.276,43.9815 L127.477,45.008 L128.679,46.0345 L129.88,47.061 L131.081,48.0875 L132.282,49.114 L133.483,50.1404 L134.685,51.1669 L135.886,52.1934 L137.087,53.2199 L138.288,54.2464 L139.489,55.2728 L140.691,56.2993 L141.892,57.3258 L143.093,58.3523 L144.294,59.3788 L145.495,60.4052 L146.697,61.4317 L147.898,62.4582 L149.099,63.4847 L150.3,64.5112 L151.502,65.5376 L152.703,66.5641 L153.904,67.5906 L155.105,68.6171 L156.306,69.6436 L157.508,70.6701 L158.709,71.6965 L159.91,72.723 L161.111,73.7495 L162.312,74.776 L163.514,75.8025 L164.715,76.8289 L165.916,77.8554 L167.117,78.8819 L168.318,79.9084 L169.52,80.9349 L170.721,81.9613 L171.922,82.9878 L173.123,84.0143 L174.324,85.0408 L175.526,86.0673 L176.727,87.0937 L177.928,88.1202 L179.129,89.1467 L180.33,90.1732 L181.532,91.1997 L182.733,92.2262 L183.934,93.2526 L185.135,94.2791 L186.336,95.3056 L187.538,96.3321 L188.739,97.3586 L189.94,98.385 L191.141,99.4115 L192.342,100.438 L193.544,101.464 L194.745,102.491 L195.946,103.517 L197.147,104.544 L198.348,105.57 L199.55,106.597 L200.751,107.623 L201.952,108.65 L203.153,109.676 L204.354,110.703 L205.556,111.729 L206.757,112.756 L207.958,113.782 L209.159,114.809 L210.36,115.835 L211.562,116.862 L212.763,117.888 L213.964,118.915 L215.165,119.941 L216.366,120.968 L217.568,121.994 L218.769,123.021 L219.97,124.047 L221.171,125.074 L222.372,126.1 L223.574,127.127 L224.775,128.153 L225.976,129.179 L227.177,130.206 L228.378,131.232 L229.58,132.259 L230.781,133.285 L231.982,134.312 L233.183,135.338 L234.384,136.365 L235.586,137.391 L236.787,138.418 L237.988,139.444 L239.189,140.471 L240.39,141.497 L241.592,142.524 L242.793,143.55 L243.994,144.577 L245.195,145.603 L246.396,146.63 L247.598,147.656 L248.799,148.683 L250,149.709 L251.201,150.736 L252.402,151.762 L253.604,152.789 L254.805,153.815 L256.006,154.841 L257.207,155.868 L258.408,156.894 L259.61,157.921 L260.811,158.947 L262.012,159.974 L263.213,161 L264.414,162.027 L265.616,163.053 L266.817,164.08 L268.018,165.106 L269.219,166.133 L270.42,167.159 L271.622,168.186 L272.823,169.212 L274.024,170.239 L275.225,171.265 L276.426,172.292 L277.628,173.318 L278.829,174.345 L280.03,175.371 L281.231,176.398 L282.432,177.424 L283.634,178.451 L284.835,179.477 L286.036,180.504 L287.237,181.53 L288.438,182.556 L289.64,183.583 L290.841,184.609 L292.042,185.636 L293.243,186.662 L294.444,187.689 L295.646,188.715 L296.847,189.742 L298.048,190.768 L299.249,191.795 L300.45,192.821 L301.652,193.848 L302.853,194.874 L304.054,195.901 L305.255,196.927 L306.456,197.954 L307.658,198.98 L308.859,200.007 L310.06,201.033 L311.261,202.06 L312.462,203.086 L313.664,204.113 L314.865,205.139 L316.066,206.166 L317.267,207.192 L318.468,208.219 L319.67,209.245 L320.871,210.271 L322.072,211.298 L323.273,212.324 L324.474,213.351 L325.676,214.377 L326.877,215.404 L328.078,216.43 L329.279,217.457 L330.48,218.483 L331.682,219.51 L332.883,220.536 L334.084,221.563 L335.285,222.589 L336.486,223.616 L337.688,224.642 L338.889,225.669 L340.09,226.695 L341.291,227.722 L342.492,228.748 L343.694,229.775 L344.895,230.801 L346.096,231.828 L347.297,232.854 L348.498,233.881 L349.7,234.907 L350.901,235.933 L352.102,236.96 L353.303,237.986 L354.505,239.013 L355.706,240.039 L356.907,241.066 L358.108,242.092 L359.309,243.119 L360.511,244.145 L361.712,245.172 L362.913,246.198 L364.114,247.225 L365.315,248.251 L366.517,249.278 L367.718,250.304 L368.919,251.331 L370.12,252.357 L371.321,253.384 L372.523,254.41 L373.724,255.437 L374.925,256.463 L376.126,257.49 L377.327,258.516 L378.529,259.543 L379.73,260.569 L380.931,261.596 L382.132,262.622 L383.333,263.648 L384.535,264.675 L385.736,265.701 L386.937,266.728 L388.138,267.754 L389.339,268.781 L390.541,269.807 L391.742,270.834 L392.943,271.86 L394.144,272.887 L395.345,273.913 L396.547,274.94 L397.748,275.966 L398.949,276.993 L400.15,278.019 L401.351,279.046 L402.553,280.072 L403.754,281.099 L404.955,282.125 L406.156,283.152 L407.357,284.178 L408.559,285.205 L409.76,286.231 L410.961,287.258 L412.162,288.284 L413.363,289.311 L414.565,290.337 L415.766,291.363 L416.967,292.39 L418.168,293.416 L419.369,294.443 L420.571,295.469 L421.772,296.496 L422.973,297.522 L424.174,298.549 L425.375,299.575 L426.577,300.602 L427.778,301.628 L428.979,302.655 L430.18,303.681 L431.381,304.708 L432.583,305.734 L433.784,306.761 L434.985,307.787 L436.186,308.814 L437.387,309.84 L438.589,310.867 L439.79,311.893 L440.991,312.92 L442.192,313.946 L443.393,314.973 L444.595,315.999 L445.796,317.025 L446.997,318.052 L448.198,319.078 L449.399,320.105 L450.601,321.131 L451.802,322.158 L453.003,323.184 L454.204,324.211 L455.405,325.237 L456.607,326.264 L457.808,327.29 L459.009,328.317 L460.21,329.343 L461.411,330.37 L462.613,331.396 L463.814,332.423 L465.015,333.449 L466.216,334.476 L467.417,335.502 L468.619,336.529 L469.82,337.555 L471.021,338.582 L472.222,339.608 L473.423,340.635 L474.625,341.661 L475.826,342.688 L477.027,343.714 L478.228,344.74 L479.429,345.767 L480.631,346.793 L481.832,347.82 L483.033,348.846 L484.234,349.873 L485.435,350.899 L486.637,351.926 L487.838,352.952 L489.039,353.979 L490.24,355.005 L491.441,356.032 L492.643,357.058 L493.844,358.085 L495.045,359.111 L496.246,360.138 L497.447,361.164 L498.649,362.191 L499.85,363.217 L501.051,364.244 L502.252,365.27 L503.453,366.297 L504.655,367.323 L505.856,368.35 L507.057,369.376 L508.258,370.403 L509.459,371.429 L510.661,372.455 L511.862,373.482 L513.063,374.508 L514.264,375.535 L515.465,376.561 L516.667,377.588 L517.868,378.614 L519.069,379.641 L520.27,380.667 L521.471,381.694 L522.673,382.72 L523.874,383.747 L525.075,384.773 L526.276,385.8 L527.477,386.826 L528.679,387.853 L529.88,388.879 L531.081,389.906 L532.282,390.932 L533.483,391.959 L534.685,392.985 L535.886,394.012 L537.087,395.038 L538.288,396.065 L539.489,397.091 L540.691,398.117 L541.892,399.144 L543.093,400.17 L544.294,401.197 L545.495,402.223 L546.697,403.25 L547.898,404.276 L549.099,405.303 L550.3,406.329 L551.502,407.356 L552.703,408.382 L553.904,409.409 L555.105,410.435 L556.306,411.462 L557.508,412.488 L558.709,413.515 L559.91,414.541 L561.111,415.568 L562.312,416.594 L563.514,417.621 L564.715,418.647 L565.916,419.674 L567.117,420.7 L568.318,421.727 L569.52,422.753 L570.721,423.78 L571.922,424.806 L573.123,425.832 L574.324,426.859 L575.526,427.885 L576.727,428.912 L577.928,429.938 L579.129,430.965 L580.33,431.991 L581.532,433.018 L582.733,434.044 L583.934,435.071 L585.135,436.097 L586.336,437.124 L587.538,438.15 L588.739,439.177 L589.94,440.203 L591.141,441.23 L592.342,442.256 L593.544,443.283 L594.745,444.309 L595.946,445.336 L597.147,446.362 L598.348,447.389 L599.55,448.415 L600.751,449.442 L601.952,450.468 L603.153,451.495 L604.354,452.521 L605.556,453.547 L606.757,454.574 L607.958,455.6 L609.159,456.627 L610.36,457.653 L611.562,458.68 L612.763,459.706 L613.964,460.733 L615.165,461.759 L616.366,462.786 L617.568,463.812 L618.769,464.839 L619.97,465.865 L621.171,466.892 L622.372,467.918 L623.574,468.945 L624.775,469.971 L625.976,470.998 L627.177,472.024 L628.378,473.051 L629.58,474.077 L630.781,475.104 L631.982,476.13 L633.183,477.157 L634.384,478.183 L635.586,479.21 L636.787,480.236 L637.988,481.262 L639.189,482.289 L640.39,483.315 L641.592,484.342 L642.793,485.368 L643.994,486.395 L645.195,487.421 L646.396,488.448 L647.598,489.474 L648.799,490.501 L650,491.527"/>
</g>

<g fill="none" stroke="#ff7800" stroke-opacity="1" stroke-width="3.52778" stroke-linecap="butt" stroke-linejoin="miter" stroke-miterlimit="2" transform="matrix(0.558,0,0,0.559333,418.5,419.5)"
font-family="Segoe UI" font-size="9" font-weight="400" font-style="normal" 
>
<path vector-effect="none" fill-rule="evenodd" d=""/>
</g>

<g fill="none" stroke="#000000" stroke-opacity="1" stroke-width="1" stroke-linecap="square" stroke-linejoin="bevel" transform="matrix(0.558,0,0,0.559333,418.5,419.5)"
font-family="Segoe UI" font-size="9" font-weight="400" font-style="normal" 
>
</g>

<g fill="none" stroke="#000000" stroke-opacity="1" stroke-width="1" stroke-linecap="square" stroke-linejoin="bevel" transform="matrix(0.558,0,0,0.559333,609.155,476.597)"
font-family="Segoe UI" font-size="9" font-weight="400" font-style="normal" 
>
</g>

<g fill="none" stroke="#000000" stroke-opacity="1" stroke-width="1" stroke-linecap="square" stroke-linejoin="bevel" transform="matrix(0.558,0,0,0.559333,609.155,476.597)"
font-family="Segoe UI" font-size="9" font-weight="400" font-style="normal" 
>
</g>

<g fill="#000000" fill-opacity="0" stroke="none" transform="matrix(0.558,0,0,0.559333,609.155,476.597)"
font-family="Segoe UI" font-size="9" font-weight="400" font-style="normal" 
>
<path vector-effect="none" fill-rule="evenodd" d="M-97.0139,-26.4583 L97.0139,-26.4583 L97.0139,26.4583 L-97.0139,26.4583 L-97.0139,-26.4583"/>
</g>

<g fill="none" stroke="#000000" stroke-opacity="1" stroke-width="1" stroke-linecap="square" stroke-linejoin="bevel" transform="matrix(0.558,0,0,0.559333,609.155,476.597)"
font-family="Segoe UI" font-size="9" font-weight="400" font-style="normal" 
>
</g>

<g fill="none" stroke="#000000" stroke-opacity="1" stroke-width="1" stroke-linecap="square" stroke-linejoin="bevel" transform="matrix(1.9685,0,0,1.9732,555.021,461.798)"
font-family="Segoe UI" font-size="9" font-weight="400" font-style="normal" 
>
</g>

<g fill="none" stroke="#000000" stroke-opacity="1" stroke-width="1" stroke-linecap="square" stroke-linejoin="bevel" transform="matrix(1.9685,0,0,1.9732,555.021,461.798)"
font-family="Segoe UI" font-size="9" font-weight="400" font-style="normal" 
>
</g>

<g fill="none" stroke="#000000" stroke-opacity="1" stroke-width="1" stroke-linecap="square" stroke-linejoin="bevel" transform="matrix(1.9685,0,0,1.9732,555.021,461.798)"
font-family="Segoe UI" font-size="9" font-weight="400" font-style="normal" 
>
</g>

<g fill="#000000" fill-opacity="0" stroke="none" transform="matrix(1.9685,0,0,1.9732,555.021,461.798)"
font-family="Segoe UI" font-size="9" font-weight="400" font-style="normal" 
>
<rect x="0" y="0" width="8" height="15"/>
</g>

<g fill="#000000" fill-opacity="0" stroke="none" transform="matrix(1.9685,0,0,1.9732,555.021,461.798)"
font-family="Segoe UI" font-size="9" font-weight="400" font-style="normal" 
>
<rect x="8" y="0" width="4" height="15"/>
</g>

<g fill="#000000" fill-opacity="0" stroke="none" transform="matrix(1.9685,0,0,1.9732,555.021,461.798)"
font-family="Segoe UI" font-size="9" font-weight="400" font-style="normal" 
>
<rect x="12" y="0" width="43" height="15"/>
</g>

<g fill="none" stroke="#000000" stroke-opacity="1" stroke-width="1" stroke-linecap="square" stroke-linejoin="bevel" transform="matrix(1.9685,0,0,1.9732,555.021,461.798)"
font-family="Segoe UI" font-size="9" font-weight="400" font-style="normal" 
>
<text fill="#000000" fill-opacity="1" stroke="none" xml:space="preserve" x="0" y="12" font-family="Times New Roman" font-size="10" font-weight="400" font-style="normal" 
 >R</text>
</g>

<g fill="none" stroke="#000000" stroke-opacity="1" stroke-width="1" stroke-linecap="square" stroke-linejoin="bevel" transform="matrix(1.9685,0,0,1.9732,555.021,461.798)"
font-family="Segoe UI" font-size="9" font-weight="400" font-style="normal" 
>
<text fill="#000000" fill-opacity="1" stroke="none" xml:space="preserve" x="8" y="7.5" font-family="Times New Roman" font-size="6" font-weight="400" font-style="normal" 
 >2</text>
</g>

<g fill="none" stroke="#000000" stroke-opacity="1" stroke-width="1" stroke-linecap="square" stroke-linejoin="bevel" transform="matrix(1.9685,0,0,1.9732,555.021,461.798)"
font-family="Segoe UI" font-size="9" font-weight="400" font-style="normal" 
>
<text fill="#000000" fill-opacity="1" stroke="none" xml:space="preserve" x="12" y="12" font-family="Times New Roman" font-size="10" font-weight="400" font-style="normal" 
 > =0.9965</text>
</g>

<g fill="none" stroke="#000000" stroke-opacity="1" stroke-width="1" stroke-linecap="square" stroke-linejoin="bevel" transform="matrix(1.9685,0,0,1.9732,555.021,461.798)"
font-family="Segoe UI" font-size="9" font-weight="400" font-style="normal" 
>
</g>

<g fill="none" stroke="#000000" stroke-opacity="1" stroke-width="1" stroke-linecap="square" stroke-linejoin="bevel" transform="matrix(1,0,0,1,0,0)"
font-family="Segoe UI" font-size="9" font-weight="400" font-style="normal" 
>
</g>

<g fill="none" stroke="#000000" stroke-opacity="1" stroke-width="1" stroke-linecap="square" stroke-linejoin="bevel" transform="matrix(0.558,0,0,0.559333,418.5,419.5)"
font-family="Segoe UI" font-size="9" font-weight="400" font-style="normal" 
>
</g>

<g fill="none" stroke="#000000" stroke-opacity="1" stroke-width="1" stroke-linecap="square" stroke-linejoin="bevel" transform="matrix(1.9685,0,0,1.9732,555.021,461.798)"
font-family="Segoe UI" font-size="9" font-weight="400" font-style="normal" 
>
</g>

<g fill="none" stroke="#000000" stroke-opacity="1" stroke-width="1" stroke-linecap="square" stroke-linejoin="bevel" transform="matrix(1.9685,0,0,1.9732,555.021,461.798)"
font-family="Segoe UI" font-size="9" font-weight="400" font-style="normal" 
>
</g>

<g fill="none" stroke="#000000" stroke-opacity="1" stroke-width="1" stroke-linecap="square" stroke-linejoin="bevel" transform="matrix(1.9685,0,0,1.9732,555.021,461.798)"
font-family="Segoe UI" font-size="9" font-weight="400" font-style="normal" 
>
</g>

<g fill="none" stroke="#000000" stroke-opacity="1" stroke-width="1" stroke-linecap="square" stroke-linejoin="bevel" transform="matrix(0.558,0,0,0.559333,418.5,419.5)"
font-family="Segoe UI" font-size="9" font-weight="400" font-style="normal" 
>
</g>

<g fill="none" stroke="#000000" stroke-opacity="1" stroke-width="3.52778" stroke-linecap="butt" stroke-linejoin="miter" stroke-miterlimit="2" transform="matrix(0.558,0,0,0.559333,418.5,419.5)"
font-family="Segoe UI" font-size="9" font-weight="400" font-style="normal" 
>
<path vector-effect="none" fill-rule="evenodd" d="M-550,550 L650,550"/>
<path vector-effect="none" fill-rule="evenodd" d="M-550,528.833 L-550,550 M-150,528.833 L-150,550 M250,528.833 L250,550 M650,528.833 L650,550"/>
<path vector-effect="none" fill-rule="evenodd" d="M-350,539.417 L-350,550 M50,539.417 L50,550 M450,539.417 L450,550"/>
</g>

<g fill="none" stroke="#000000" stroke-opacity="1" stroke-width="1" stroke-linecap="square" stroke-linejoin="bevel" transform="matrix(0.558,0,0,0.559333,105.462,774.568)"
font-family="Times New Roman" font-size="38.8056" font-weight="400" font-style="normal" 
>
</g>

<g fill="none" stroke="#000000" stroke-opacity="1" stroke-width="1" stroke-linecap="square" stroke-linejoin="bevel" transform="matrix(0.558,0,0,0.559333,105.462,774.568)"
font-family="Times New Roman" font-size="38.8056" font-weight="400" font-style="normal" 
>
<text fill="#000000" fill-opacity="1" stroke="none" xml:space="preserve" x="0" y="0" font-family="Times New Roman" font-size="38.8056" font-weight="400" font-style="normal" 
 >0</text>
</g>

<g fill="none" stroke="#000000" stroke-opacity="1" stroke-width="1" stroke-linecap="square" stroke-linejoin="bevel" transform="matrix(0.558,0,0,0.559333,105.462,774.568)"
font-family="Times New Roman" font-size="38.8056" font-weight="400" font-style="normal" 
>
</g>

<g fill="none" stroke="#000000" stroke-opacity="1" stroke-width="1" stroke-linecap="square" stroke-linejoin="bevel" transform="matrix(0.558,0,0,0.559333,321.408,774.568)"
font-family="Times New Roman" font-size="38.8056" font-weight="400" font-style="normal" 
>
</g>

<g fill="none" stroke="#000000" stroke-opacity="1" stroke-width="1" stroke-linecap="square" stroke-linejoin="bevel" transform="matrix(0.558,0,0,0.559333,321.408,774.568)"
font-family="Times New Roman" font-size="38.8056" font-weight="400" font-style="normal" 
>
<text fill="#000000" fill-opacity="1" stroke="none" xml:space="preserve" x="0" y="0" font-family="Times New Roman" font-size="38.8056" font-weight="400" font-style="normal" 
 >60</text>
</g>

<g fill="none" stroke="#000000" stroke-opacity="1" stroke-width="1" stroke-linecap="square" stroke-linejoin="bevel" transform="matrix(0.558,0,0,0.559333,321.408,774.568)"
font-family="Times New Roman" font-size="38.8056" font-weight="400" font-style="normal" 
>
</g>

<g fill="none" stroke="#000000" stroke-opacity="1" stroke-width="1" stroke-linecap="square" stroke-linejoin="bevel" transform="matrix(0.558,0,0,0.559333,538.47,774.568)"
font-family="Times New Roman" font-size="38.8056" font-weight="400" font-style="normal" 
>
</g>

<g fill="none" stroke="#000000" stroke-opacity="1" stroke-width="1" stroke-linecap="square" stroke-linejoin="bevel" transform="matrix(0.558,0,0,0.559333,538.47,774.568)"
font-family="Times New Roman" font-size="38.8056" font-weight="400" font-style="normal" 
>
<text fill="#000000" fill-opacity="1" stroke="none" xml:space="preserve" x="0" y="0" font-family="Times New Roman" font-size="38.8056" font-weight="400" font-style="normal" 
 >120</text>
</g>

<g fill="none" stroke="#000000" stroke-opacity="1" stroke-width="1" stroke-linecap="square" stroke-linejoin="bevel" transform="matrix(0.558,0,0,0.559333,538.47,774.568)"
font-family="Times New Roman" font-size="38.8056" font-weight="400" font-style="normal" 
>
</g>

<g fill="none" stroke="#000000" stroke-opacity="1" stroke-width="1" stroke-linecap="square" stroke-linejoin="bevel" transform="matrix(0.558,0,0,0.559333,761.67,774.568)"
font-family="Times New Roman" font-size="38.8056" font-weight="400" font-style="normal" 
>
</g>

<g fill="none" stroke="#000000" stroke-opacity="1" stroke-width="1" stroke-linecap="square" stroke-linejoin="bevel" transform="matrix(0.558,0,0,0.559333,761.67,774.568)"
font-family="Times New Roman" font-size="38.8056" font-weight="400" font-style="normal" 
>
<text fill="#000000" fill-opacity="1" stroke="none" xml:space="preserve" x="0" y="0" font-family="Times New Roman" font-size="38.8056" font-weight="400" font-style="normal" 
 >180</text>
</g>

<g fill="none" stroke="#000000" stroke-opacity="1" stroke-width="1" stroke-linecap="square" stroke-linejoin="bevel" transform="matrix(0.558,0,0,0.559333,761.67,774.568)"
font-family="Times New Roman" font-size="38.8056" font-weight="400" font-style="normal" 
>
</g>

<g fill="none" stroke="#000000" stroke-opacity="1" stroke-width="1" stroke-linecap="square" stroke-linejoin="bevel" transform="matrix(0.558,0,0,0.559333,418.5,419.5)"
font-family="Segoe UI" font-size="9" font-weight="400" font-style="normal" 
>
</g>

<g fill="none" stroke="#000000" stroke-opacity="1" stroke-width="1" stroke-linecap="square" stroke-linejoin="bevel" transform="matrix(0.558,0,0,0.559333,446.4,786.64)"
font-family="Segoe UI" font-size="9" font-weight="400" font-style="normal" 
>
</g>

<g fill="none" stroke="#000000" stroke-opacity="1" stroke-width="1" stroke-linecap="square" stroke-linejoin="bevel" transform="matrix(0.558,0,0,0.559333,446.4,786.64)"
font-family="Segoe UI" font-size="9" font-weight="400" font-style="normal" 
>
</g>

<g fill="#000000" fill-opacity="0" stroke="none" transform="matrix(0.558,0,0,0.559333,446.4,786.64)"
font-family="Segoe UI" font-size="9" font-weight="400" font-style="normal" 
>
<path vector-effect="none" fill-rule="evenodd" d="M-156.986,-28.2222 L156.986,-28.2222 L156.986,28.2222 L-156.986,28.2222 L-156.986,-28.2222"/>
</g>

<g fill="none" stroke="#000000" stroke-opacity="1" stroke-width="1" stroke-linecap="square" stroke-linejoin="bevel" transform="matrix(0.558,0,0,0.559333,446.4,786.64)"
font-family="Segoe UI" font-size="9" font-weight="400" font-style="normal" 
>
</g>

<g fill="none" stroke="#000000" stroke-opacity="1" stroke-width="1" stroke-linecap="square" stroke-linejoin="bevel" transform="matrix(1.9685,0,0,1.9732,358.802,770.855)"
font-family="Segoe UI" font-size="9" font-weight="400" font-style="normal" 
>
</g>

<g fill="none" stroke="#000000" stroke-opacity="1" stroke-width="1" stroke-linecap="square" stroke-linejoin="bevel" transform="matrix(1.9685,0,0,1.9732,358.802,770.855)"
font-family="Segoe UI" font-size="9" font-weight="400" font-style="normal" 
>
</g>

<g fill="none" stroke="#000000" stroke-opacity="1" stroke-width="1" stroke-linecap="square" stroke-linejoin="bevel" transform="matrix(1.9685,0,0,1.9732,358.802,770.855)"
font-family="Segoe UI" font-size="9" font-weight="400" font-style="normal" 
>
</g>

<g fill="#000000" fill-opacity="0" stroke="none" transform="matrix(1.9685,0,0,1.9732,358.802,770.855)"
font-family="Segoe UI" font-size="9" font-weight="400" font-style="normal" 
>
<rect x="0" y="0" width="89" height="16"/>
</g>

<g fill="none" stroke="#000000" stroke-opacity="1" stroke-width="1" stroke-linecap="square" stroke-linejoin="bevel" transform="matrix(1.9685,0,0,1.9732,358.802,770.855)"
font-family="Segoe UI" font-size="9" font-weight="400" font-style="normal" 
>
<text fill="#000000" fill-opacity="1" stroke="none" xml:space="preserve" x="0" y="13" font-family="Times New Roman" font-size="11" font-weight="400" font-style="normal" 
 >Angle (degree)</text>
</g>

<g fill="none" stroke="#000000" stroke-opacity="1" stroke-width="1" stroke-linecap="square" stroke-linejoin="bevel" transform="matrix(1.9685,0,0,1.9732,358.802,770.855)"
font-family="Segoe UI" font-size="9" font-weight="400" font-style="normal" 
>
</g>

<g fill="none" stroke="#000000" stroke-opacity="1" stroke-width="1" stroke-linecap="square" stroke-linejoin="bevel" transform="matrix(1,0,0,1,0,0)"
font-family="Segoe UI" font-size="9" font-weight="400" font-style="normal" 
>
</g>

<g fill="none" stroke="#000000" stroke-opacity="1" stroke-width="1" stroke-linecap="square" stroke-linejoin="bevel" transform="matrix(0.558,0,0,0.559333,418.5,419.5)"
font-family="Segoe UI" font-size="9" font-weight="400" font-style="normal" 
>
</g>

<g fill="none" stroke="#000000" stroke-opacity="1" stroke-width="1" stroke-linecap="square" stroke-linejoin="bevel" transform="matrix(1.9685,0,0,1.9732,358.802,770.855)"
font-family="Segoe UI" font-size="9" font-weight="400" font-style="normal" 
>
</g>

<g fill="none" stroke="#000000" stroke-opacity="1" stroke-width="1" stroke-linecap="square" stroke-linejoin="bevel" transform="matrix(1.9685,0,0,1.9732,358.802,770.855)"
font-family="Segoe UI" font-size="9" font-weight="400" font-style="normal" 
>
</g>

<g fill="none" stroke="#000000" stroke-opacity="1" stroke-width="1" stroke-linecap="square" stroke-linejoin="bevel" transform="matrix(1.9685,0,0,1.9732,358.802,770.855)"
font-family="Segoe UI" font-size="9" font-weight="400" font-style="normal" 
>
</g>

<g fill="none" stroke="#000000" stroke-opacity="1" stroke-width="1" stroke-linecap="square" stroke-linejoin="bevel" transform="matrix(0.558,0,0,0.559333,418.5,419.5)"
font-family="Segoe UI" font-size="9" font-weight="400" font-style="normal" 
>
</g>

<g fill="none" stroke="#000000" stroke-opacity="1" stroke-width="3.52778" stroke-linecap="butt" stroke-linejoin="miter" stroke-miterlimit="2" transform="matrix(0.558,0,0,0.559333,418.5,419.5)"
font-family="Segoe UI" font-size="9" font-weight="400" font-style="normal" 
>
<path vector-effect="none" fill-rule="evenodd" d="M-550,-650 L650,-650"/>
</g>

<g fill="none" stroke="#000000" stroke-opacity="1" stroke-width="1" stroke-linecap="square" stroke-linejoin="bevel" transform="matrix(0.558,0,0,0.559333,418.5,419.5)"
font-family="Segoe UI" font-size="9" font-weight="400" font-style="normal" 
>
</g>

<g fill="none" stroke="#000000" stroke-opacity="1" stroke-width="1" stroke-linecap="square" stroke-linejoin="bevel" transform="matrix(0.558,0,0,0.559333,418.5,419.5)"
font-family="Segoe UI" font-size="9" font-weight="400" font-style="normal" 
>
</g>

<g fill="none" stroke="#000000" stroke-opacity="1" stroke-width="1" stroke-linecap="square" stroke-linejoin="bevel" transform="matrix(0.558,0,0,0.559333,418.5,419.5)"
font-family="Segoe UI" font-size="9" font-weight="400" font-style="normal" 
>
</g>

<g fill="none" stroke="#000000" stroke-opacity="1" stroke-width="1" stroke-linecap="square" stroke-linejoin="bevel" transform="matrix(1.9685,0,0,1.9732,418.5,403.714)"
font-family="Segoe UI" font-size="9" font-weight="400" font-style="normal" 
>
</g>

<g fill="none" stroke="#000000" stroke-opacity="1" stroke-width="1" stroke-linecap="square" stroke-linejoin="bevel" transform="matrix(1.9685,0,0,1.9732,418.5,403.714)"
font-family="Segoe UI" font-size="9" font-weight="400" font-style="normal" 
>
</g>

<g fill="none" stroke="#000000" stroke-opacity="1" stroke-width="1" stroke-linecap="square" stroke-linejoin="bevel" transform="matrix(1.9685,0,0,1.9732,418.5,403.714)"
font-family="Segoe UI" font-size="9" font-weight="400" font-style="normal" 
>
</g>

<g fill="none" stroke="#000000" stroke-opacity="1" stroke-width="1" stroke-linecap="square" stroke-linejoin="bevel" transform="matrix(1.9685,0,0,1.9732,418.5,403.714)"
font-family="Segoe UI" font-size="9" font-weight="400" font-style="normal" 
>
</g>

<g fill="none" stroke="#000000" stroke-opacity="1" stroke-width="1" stroke-linecap="square" stroke-linejoin="bevel" transform="matrix(1.9685,0,0,1.9732,418.5,403.714)"
font-family="Segoe UI" font-size="9" font-weight="400" font-style="normal" 
>
</g>

<g fill="none" stroke="#000000" stroke-opacity="1" stroke-width="1" stroke-linecap="square" stroke-linejoin="bevel" transform="matrix(0.558,0,0,0.559333,418.5,419.5)"
font-family="Segoe UI" font-size="9" font-weight="400" font-style="normal" 
>
</g>

<g fill="none" stroke="#000000" stroke-opacity="1" stroke-width="3.52778" stroke-linecap="butt" stroke-linejoin="miter" stroke-miterlimit="2" transform="matrix(0.558,0,0,0.559333,418.5,419.5)"
font-family="Segoe UI" font-size="9" font-weight="400" font-style="normal" 
>
<path vector-effect="none" fill-rule="evenodd" d="M-550,550 L-550,-650"/>
<path vector-effect="none" fill-rule="evenodd" d="M-528.833,222.727 L-550,222.727 M-528.833,-213.636 L-550,-213.636 M-528.833,-650 L-550,-650"/>
<path vector-effect="none" fill-rule="evenodd" d="M-539.417,440.909 L-550,440.909 M-539.417,4.54545 L-550,4.54545 M-539.417,-431.818 L-550,-431.818"/>
</g>

<g fill="none" stroke="#000000" stroke-opacity="1" stroke-width="1" stroke-linecap="square" stroke-linejoin="bevel" transform="matrix(0.558,0,0,0.559333,59.9075,556.943)"
font-family="Times New Roman" font-size="38.8056" font-weight="400" font-style="normal" 
>
</g>

<g fill="none" stroke="#000000" stroke-opacity="1" stroke-width="1" stroke-linecap="square" stroke-linejoin="bevel" transform="matrix(0.558,0,0,0.559333,59.9075,556.943)"
font-family="Times New Roman" font-size="38.8056" font-weight="400" font-style="normal" 
>
<text fill="#000000" fill-opacity="1" stroke="none" xml:space="preserve" x="0" y="0" font-family="Times New Roman" font-size="38.8056" font-weight="400" font-style="normal" 
 >400</text>
</g>

<g fill="none" stroke="#000000" stroke-opacity="1" stroke-width="1" stroke-linecap="square" stroke-linejoin="bevel" transform="matrix(0.558,0,0,0.559333,59.9075,556.943)"
font-family="Times New Roman" font-size="38.8056" font-weight="400" font-style="normal" 
>
</g>

<g fill="none" stroke="#000000" stroke-opacity="1" stroke-width="1" stroke-linecap="square" stroke-linejoin="bevel" transform="matrix(0.558,0,0,0.559333,61.0235,312.871)"
font-family="Times New Roman" font-size="38.8056" font-weight="400" font-style="normal" 
>
</g>

<g fill="none" stroke="#000000" stroke-opacity="1" stroke-width="1" stroke-linecap="square" stroke-linejoin="bevel" transform="matrix(0.558,0,0,0.559333,61.0235,312.871)"
font-family="Times New Roman" font-size="38.8056" font-weight="400" font-style="normal" 
>
<text fill="#000000" fill-opacity="1" stroke="none" xml:space="preserve" x="0" y="0" font-family="Times New Roman" font-size="38.8056" font-weight="400" font-style="normal" 
 >800</text>
</g>

<g fill="none" stroke="#000000" stroke-opacity="1" stroke-width="1" stroke-linecap="square" stroke-linejoin="bevel" transform="matrix(0.558,0,0,0.559333,61.0235,312.871)"
font-family="Times New Roman" font-size="38.8056" font-weight="400" font-style="normal" 
>
</g>

<g fill="none" stroke="#000000" stroke-opacity="1" stroke-width="1" stroke-linecap="square" stroke-linejoin="bevel" transform="matrix(0.558,0,0,0.559333,40.9355,68.798)"
font-family="Times New Roman" font-size="38.8056" font-weight="400" font-style="normal" 
>
</g>

<g fill="none" stroke="#000000" stroke-opacity="1" stroke-width="1" stroke-linecap="square" stroke-linejoin="bevel" transform="matrix(0.558,0,0,0.559333,40.9355,68.798)"
font-family="Times New Roman" font-size="38.8056" font-weight="400" font-style="normal" 
>
<text fill="#000000" fill-opacity="1" stroke="none" xml:space="preserve" x="0" y="0" font-family="Times New Roman" font-size="38.8056" font-weight="400" font-style="normal" 
 >1,200</text>
</g>

<g fill="none" stroke="#000000" stroke-opacity="1" stroke-width="1" stroke-linecap="square" stroke-linejoin="bevel" transform="matrix(0.558,0,0,0.559333,40.9355,68.798)"
font-family="Times New Roman" font-size="38.8056" font-weight="400" font-style="normal" 
>
</g>

<g fill="none" stroke="#000000" stroke-opacity="1" stroke-width="1" stroke-linecap="square" stroke-linejoin="bevel" transform="matrix(0.558,0,0,0.559333,418.5,419.5)"
font-family="Segoe UI" font-size="9" font-weight="400" font-style="normal" 
>
</g>

<g fill="none" stroke="#000000" stroke-opacity="1" stroke-width="1" stroke-linecap="square" stroke-linejoin="bevel" transform="matrix(0,-0.559333,0.558,0,23.219,391.533)"
font-family="Segoe UI" font-size="9" font-weight="400" font-style="normal" 
>
</g>

<g fill="none" stroke="#000000" stroke-opacity="1" stroke-width="1" stroke-linecap="square" stroke-linejoin="bevel" transform="matrix(0,-0.559333,0.558,0,23.219,391.533)"
font-family="Segoe UI" font-size="9" font-weight="400" font-style="normal" 
>
</g>

<g fill="#000000" fill-opacity="0" stroke="none" transform="matrix(0,-0.559333,0.558,0,23.219,391.533)"
font-family="Segoe UI" font-size="9" font-weight="400" font-style="normal" 
>
<path vector-effect="none" fill-rule="evenodd" d="M-183.444,-28.2222 L183.444,-28.2222 L183.444,28.2222 L-183.444,28.2222 L-183.444,-28.2222"/>
</g>

<g fill="none" stroke="#000000" stroke-opacity="1" stroke-width="1" stroke-linecap="square" stroke-linejoin="bevel" transform="matrix(0,-0.559333,0.558,0,23.219,391.533)"
font-family="Segoe UI" font-size="9" font-weight="400" font-style="normal" 
>
</g>

<g fill="none" stroke="#000000" stroke-opacity="1" stroke-width="1" stroke-linecap="square" stroke-linejoin="bevel" transform="matrix(0,-1.9732,1.9685,0,7.471,494.14)"
font-family="Segoe UI" font-size="9" font-weight="400" font-style="normal" 
>
</g>

<g fill="none" stroke="#000000" stroke-opacity="1" stroke-width="1" stroke-linecap="square" stroke-linejoin="bevel" transform="matrix(0,-1.9732,1.9685,0,7.471,494.14)"
font-family="Segoe UI" font-size="9" font-weight="400" font-style="normal" 
>
</g>

<g fill="none" stroke="#000000" stroke-opacity="1" stroke-width="1" stroke-linecap="square" stroke-linejoin="bevel" transform="matrix(0,-1.9732,1.9685,0,7.471,494.14)"
font-family="Segoe UI" font-size="9" font-weight="400" font-style="normal" 
>
</g>

<g fill="#000000" fill-opacity="0" stroke="none" transform="matrix(0,-1.9732,1.9685,0,7.471,494.14)"
font-family="Segoe UI" font-size="9" font-weight="400" font-style="normal" 
>
<rect x="0" y="0" width="104" height="16"/>
</g>

<g fill="none" stroke="#000000" stroke-opacity="1" stroke-width="1" stroke-linecap="square" stroke-linejoin="bevel" transform="matrix(0,-1.9732,1.9685,0,7.471,494.14)"
font-family="Segoe UI" font-size="9" font-weight="400" font-style="normal" 
>
<text fill="#000000" fill-opacity="1" stroke="none" xml:space="preserve" x="0" y="13" font-family="Times New Roman" font-size="11" font-weight="400" font-style="normal" 
 >ADC value (raw)</text>
</g>

<g fill="none" stroke="#000000" stroke-opacity="1" stroke-width="1" stroke-linecap="square" stroke-linejoin="bevel" transform="matrix(0,-1.9732,1.9685,0,7.471,494.14)"
font-family="Segoe UI" font-size="9" font-weight="400" font-style="normal" 
>
</g>

<g fill="none" stroke="#000000" stroke-opacity="1" stroke-width="1" stroke-linecap="square" stroke-linejoin="bevel" transform="matrix(1,0,0,1,0,0)"
font-family="Segoe UI" font-size="9" font-weight="400" font-style="normal" 
>
</g>

<g fill="none" stroke="#000000" stroke-opacity="1" stroke-width="1" stroke-linecap="square" stroke-linejoin="bevel" transform="matrix(0.558,0,0,0.559333,418.5,419.5)"
font-family="Segoe UI" font-size="9" font-weight="400" font-style="normal" 
>
</g>

<g fill="none" stroke="#000000" stroke-opacity="1" stroke-width="1" stroke-linecap="square" stroke-linejoin="bevel" transform="matrix(0,-1.9732,1.9685,0,7.471,494.14)"
font-family="Segoe UI" font-size="9" font-weight="400" font-style="normal" 
>
</g>

<g fill="none" stroke="#000000" stroke-opacity="1" stroke-width="1" stroke-linecap="square" stroke-linejoin="bevel" transform="matrix(0,-1.9732,1.9685,0,7.471,494.14)"
font-family="Segoe UI" font-size="9" font-weight="400" font-style="normal" 
>
</g>

<g fill="none" stroke="#000000" stroke-opacity="1" stroke-width="1" stroke-linecap="square" stroke-linejoin="bevel" transform="matrix(0,-1.9732,1.9685,0,7.471,494.14)"
font-family="Segoe UI" font-size="9" font-weight="400" font-style="normal" 
>
</g>

<g fill="none" stroke="#000000" stroke-opacity="1" stroke-width="1" stroke-linecap="square" stroke-linejoin="bevel" transform="matrix(0.558,0,0,0.559333,418.5,419.5)"
font-family="Segoe UI" font-size="9" font-weight="400" font-style="normal" 
>
</g>

<g fill="none" stroke="#000000" stroke-opacity="1" stroke-width="3.52778" stroke-linecap="butt" stroke-linejoin="miter" stroke-miterlimit="2" transform="matrix(0.558,0,0,0.559333,418.5,419.5)"
font-family="Segoe UI" font-size="9" font-weight="400" font-style="normal" 
>
<path vector-effect="none" fill-rule="evenodd" d="M650,550 L650,-650"/>
</g>

<g fill="none" stroke="#000000" stroke-opacity="1" stroke-width="1" stroke-linecap="square" stroke-linejoin="bevel" transform="matrix(0.558,0,0,0.559333,418.5,419.5)"
font-family="Segoe UI" font-size="9" font-weight="400" font-style="normal" 
>
</g>

<g fill="none" stroke="#000000" stroke-opacity="1" stroke-width="1" stroke-linecap="square" stroke-linejoin="bevel" transform="matrix(0,-0.559333,0.558,0,418.5,419.5)"
font-family="Segoe UI" font-size="9" font-weight="400" font-style="normal" 
>
</g>

<g fill="none" stroke="#000000" stroke-opacity="1" stroke-width="1" stroke-linecap="square" stroke-linejoin="bevel" transform="matrix(0,-0.559333,0.558,0,418.5,419.5)"
font-family="Segoe UI" font-size="9" font-weight="400" font-style="normal" 
>
</g>

<g fill="none" stroke="#000000" stroke-opacity="1" stroke-width="1" stroke-linecap="square" stroke-linejoin="bevel" transform="matrix(0,-1.9732,1.9685,0,402.752,419.5)"
font-family="Segoe UI" font-size="9" font-weight="400" font-style="normal" 
>
</g>

<g fill="none" stroke="#000000" stroke-opacity="1" stroke-width="1" stroke-linecap="square" stroke-linejoin="bevel" transform="matrix(0,-1.9732,1.9685,0,402.752,419.5)"
font-family="Segoe UI" font-size="9" font-weight="400" font-style="normal" 
>
</g>

<g fill="none" stroke="#000000" stroke-opacity="1" stroke-width="1" stroke-linecap="square" stroke-linejoin="bevel" transform="matrix(0,-1.9732,1.9685,0,402.752,419.5)"
font-family="Segoe UI" font-size="9" font-weight="400" font-style="normal" 
>
</g>

<g fill="none" stroke="#000000" stroke-opacity="1" stroke-width="1" stroke-linecap="square" stroke-linejoin="bevel" transform="matrix(0,-1.9732,1.9685,0,402.752,419.5)"
font-family="Segoe UI" font-size="9" font-weight="400" font-style="normal" 
>
</g>

<g fill="none" stroke="#000000" stroke-opacity="1" stroke-width="1" stroke-linecap="square" stroke-linejoin="bevel" transform="matrix(0,-1.9732,1.9685,0,402.752,419.5)"
font-family="Segoe UI" font-size="9" font-weight="400" font-style="normal" 
>
</g>

<g fill="none" stroke="#000000" stroke-opacity="1" stroke-width="1" stroke-linecap="square" stroke-linejoin="bevel" transform="matrix(0,-1.9732,1.9685,0,402.752,419.5)"
font-family="Segoe UI" font-size="9" font-weight="400" font-style="normal" 
>
</g>

<g fill="none" stroke="#000000" stroke-opacity="1" stroke-width="1" stroke-linecap="square" stroke-linejoin="bevel" transform="matrix(1,0,0,1,0,0)"
font-family="Segoe UI" font-size="9" font-weight="400" font-style="normal" 
>
</g>

<g fill="none" stroke="#000000" stroke-opacity="1" stroke-width="1" stroke-linecap="square" stroke-linejoin="bevel" transform="matrix(0.558,0,0,0.559333,418.5,419.5)"
font-family="Segoe UI" font-size="9" font-weight="400" font-style="normal" 
>
</g>

<g fill="none" stroke="#000000" stroke-opacity="1" stroke-width="1" stroke-linecap="square" stroke-linejoin="bevel" transform="matrix(1,0,0,1,0,0)"
font-family="Segoe UI" font-size="9" font-weight="400" font-style="normal" 
>
</g>
</g>
</svg>
